<svg width="24" height="24" viewBox="0 0 806 772" fill="none" xmlns="http://www.w3.org/2000/svg">
<path d="M432 504C461.704 504 490.192 492.2 511.196 471.196C532.2 450.192 544 421.704 544 392C544 388.72 543.85 385.47 543.57 382.26L422.26 503.57C425.47 503.85 428.71 504 432 504ZM802.72 45.56L760 2.88C758.5 1.38084 756.466 0.538712 754.345 0.538712C752.224 0.538712 750.19 1.38084 748.69 2.88L639.37 112.23C579.063 81.41 511.273 66 436 66C243.8 66 100.4 166.1 5.79992 366.3C1.99746 374.352 0.0253906 383.146 0.0253906 392.05C0.0253906 400.954 1.99746 409.748 5.79992 417.8C43.5999 497.42 89.1166 561.237 142.35 609.25L36.5599 715C35.0608 716.5 34.2186 718.534 34.2186 720.655C34.2186 722.776 35.0608 724.81 36.5599 726.31L79.2499 769C80.7501 770.499 82.7841 771.341 84.9049 771.341C87.0257 771.341 89.0598 770.499 90.5599 769L802.72 56.88C803.464 56.137 804.054 55.2547 804.456 54.2835C804.859 53.3123 805.066 52.2713 805.066 51.22C805.066 50.1687 804.859 49.1277 804.456 48.1565C804.054 47.1853 803.464 46.303 802.72 45.56ZM256 392C255.997 361.601 263.868 331.719 278.847 305.266C293.825 278.812 315.4 256.69 341.469 241.053C367.539 225.416 397.214 216.798 427.604 216.039C457.994 215.28 488.062 222.405 514.88 236.72L466.26 285.34C446.652 279.062 425.693 278.305 405.684 283.155C385.674 288.004 367.387 298.271 352.829 312.829C338.271 327.387 328.004 345.675 323.154 365.684C318.305 385.693 319.061 406.652 325.34 426.26L276.72 474.88C263.076 449.388 255.957 420.914 256 392V392Z" fill="#0e9c4a"/>
</svg>
