<svg width="872" height="652" viewBox="0 0 872 652" fill="none" xmlns="http://www.w3.org/2000/svg">
<path d="M320 326C320 355.704 331.8 384.192 352.804 405.196C373.808 426.2 402.296 438 432 438C461.704 438 490.192 426.2 511.196 405.196C532.2 384.192 544 355.704 544 326C544 296.296 532.2 267.808 511.196 246.804C490.192 225.8 461.704 214 432 214C402.296 214 373.808 225.8 352.804 246.804C331.8 267.808 320 296.296 320 326V326ZM866.2 300.2C771.4 100.5 628.1 0 436 0C243.8 0 100.6 100.5 5.79992 300.3C1.99746 308.352 0.0253906 317.146 0.0253906 326.05C0.0253906 334.954 1.99746 343.748 5.79992 351.8C100.6 551.5 243.9 652 436 652C628.2 652 771.4 551.5 866.2 351.7C873.9 335.5 873.9 316.7 866.2 300.2V300.2ZM432 502C334.8 502 256 423.2 256 326C256 228.8 334.8 150 432 150C529.2 150 608 228.8 608 326C608 423.2 529.2 502 432 502Z" fill="#0e9c4a"/>
</svg>
