<svg width="28" height="20" viewBox="0 0 28 20" fill="none" xmlns="http://www.w3.org/2000/svg">
<path d="M20.667 5.37337C21.1944 5.37337 21.71 5.21698 22.1485 4.92396C22.5871 4.63094 22.9289 4.21447 23.1307 3.7272C23.3325 3.23993 23.3853 2.70375 23.2824 2.18647C23.1795 1.66918 22.9256 1.19403 22.5526 0.821089C22.1797 0.448149 21.7045 0.194173 21.1873 0.0912795C20.67 -0.0116144 20.1338 0.0411945 19.6465 0.243028C19.1593 0.444862 18.7428 0.786655 18.4498 1.22519C18.1567 1.66372 18.0003 2.17929 18.0003 2.70671C18.0003 3.41395 18.2813 4.09223 18.7814 4.59233C19.2815 5.09242 19.9598 5.37337 20.667 5.37337ZM1.61368 11.56C1.87788 11.6445 2.13259 11.7562 2.37368 11.8934C3.20292 12.3785 4.14631 12.6341 5.10701 12.6341C6.06771 12.6341 7.0111 12.3785 7.84034 11.8934C8.36178 11.6014 8.9494 11.4481 9.54701 11.4481C10.1446 11.4481 10.7322 11.6014 11.2537 11.8934L11.5337 12.0267C12.3427 12.4206 13.2358 12.6107 14.1352 12.5805C15.0345 12.5503 15.9129 12.3007 16.6937 11.8534C17.2151 11.5614 17.8027 11.4081 18.4003 11.4081C18.998 11.4081 19.5856 11.5614 20.107 11.8534C20.952 12.3363 21.9071 12.5934 22.8803 12.6C23.8195 12.5903 24.7394 12.3327 25.547 11.8534C25.7881 11.7162 26.0428 11.6045 26.307 11.52C26.5041 11.5065 26.6957 11.4493 26.8679 11.3526C27.0402 11.256 27.1888 11.1222 27.3031 10.9611C27.4174 10.7999 27.4944 10.6154 27.5286 10.4209C27.5628 10.2263 27.5534 10.0266 27.501 9.83615C27.4486 9.6457 27.3545 9.46926 27.2256 9.3196C27.0967 9.16995 26.9361 9.05081 26.7555 8.97079C26.5749 8.89078 26.3788 8.8519 26.1813 8.85696C25.9838 8.86202 25.7899 8.91089 25.6137 9.00004C25.1484 9.14443 24.7011 9.34125 24.2803 9.58671C23.8547 9.83246 23.3718 9.96184 22.8803 9.96184C22.3888 9.96184 21.906 9.83246 21.4803 9.58671C20.5567 9.06564 19.5142 8.79186 18.4537 8.79186C17.3932 8.79186 16.3507 9.06564 15.427 9.58671C15.3016 9.64802 15.1724 9.70146 15.0403 9.74671L17.1203 7.66671C17.168 7.60495 17.2083 7.53783 17.2403 7.46671C17.3007 7.40112 17.3543 7.32965 17.4003 7.25337C17.4066 7.16904 17.4066 7.08437 17.4003 7.00004C17.4079 6.91577 17.4079 6.83098 17.4003 6.74671C17.4067 6.66683 17.4067 6.58658 17.4003 6.50671C17.4079 6.42243 17.4079 6.33765 17.4003 6.25337C17.3609 6.17499 17.3163 6.09928 17.267 6.02671C17.2324 5.9499 17.1875 5.87814 17.1337 5.81337L13.0403 1.37337C12.9327 1.25597 12.8066 1.15689 12.667 1.08004C12.5741 1.06774 12.4799 1.06774 12.387 1.08004C12.3119 1.06784 12.2354 1.06784 12.1603 1.08004C11.9829 1.00862 11.7907 0.981174 11.6003 1.00004L6.88034 2.76004C6.54803 2.88039 6.27709 3.12776 6.12708 3.44778C5.97707 3.76781 5.96026 4.1343 6.08034 4.46671C6.20069 4.79902 6.44806 5.06996 6.76808 5.21997C7.08811 5.36998 7.4546 5.38679 7.78701 5.26671L11.6937 3.84004L14.3603 6.66671L11.827 9.20004C10.9782 8.87008 10.0668 8.73242 9.15843 8.79698C8.25005 8.86154 7.36728 9.1267 6.57368 9.57337C6.14802 9.81913 5.66518 9.9485 5.17368 9.9485C4.68217 9.9485 4.19933 9.81913 3.77368 9.57337C3.3529 9.32792 2.90559 9.1311 2.44034 8.98671C2.26974 8.92306 2.08791 8.89502 1.90607 8.90434C1.72422 8.91365 1.5462 8.96011 1.383 9.04085C1.21979 9.1216 1.07486 9.23492 0.957125 9.37382C0.839392 9.51273 0.751358 9.67427 0.69845 9.84851C0.645543 10.0227 0.628882 10.206 0.649497 10.3869C0.670111 10.5678 0.727564 10.7426 0.818312 10.9004C0.90906 11.0583 1.03118 11.1959 1.17714 11.3048C1.32311 11.4136 1.48982 11.4914 1.66701 11.5334L1.61368 11.56ZM25.6137 15.68C25.1484 15.8244 24.7011 16.0213 24.2803 16.2667C23.8547 16.5125 23.3718 16.6418 22.8803 16.6418C22.3888 16.6418 21.906 16.5125 21.4803 16.2667C20.5567 15.7456 19.5142 15.4719 18.4537 15.4719C17.3932 15.4719 16.3507 15.7456 15.427 16.2667C14.9977 16.5161 14.5101 16.6475 14.0137 16.6475C13.5172 16.6475 13.0296 16.5161 12.6003 16.2667C11.6767 15.7456 10.6342 15.4719 9.57368 15.4719C8.51319 15.4719 7.47066 15.7456 6.54701 16.2667C6.12136 16.5125 5.63851 16.6418 5.14701 16.6418C4.65551 16.6418 4.17266 16.5125 3.74701 16.2667C3.32624 16.0213 2.87892 15.8244 2.41368 15.68C2.24308 15.6164 2.06125 15.5884 1.8794 15.5977C1.69755 15.607 1.51954 15.6534 1.35633 15.7342C1.19313 15.8149 1.04819 15.9283 0.930458 16.0672C0.812725 16.2061 0.724691 16.3676 0.671784 16.5418C0.618876 16.7161 0.602216 16.8993 0.62283 17.0802C0.643445 17.2611 0.700897 17.4359 0.791645 17.5938C0.882393 17.7516 1.00451 17.8892 1.15048 17.9981C1.29644 18.1069 1.46316 18.1847 1.64034 18.2267C1.90455 18.3112 2.15925 18.4229 2.40034 18.56C3.22958 19.0451 4.17298 19.3008 5.13368 19.3008C6.09438 19.3008 7.03777 19.0451 7.86701 18.56C8.38845 18.2681 8.97607 18.1148 9.57368 18.1148C10.1713 18.1148 10.7589 18.2681 11.2803 18.56C12.1167 19.0383 13.0635 19.2899 14.027 19.2899C14.9905 19.2899 15.9373 19.0383 16.7737 18.56C17.2951 18.2681 17.8827 18.1148 18.4803 18.1148C19.078 18.1148 19.6656 18.2681 20.187 18.56C21.032 19.043 21.9871 19.3001 22.9603 19.3067C23.8995 19.297 24.8194 19.0394 25.627 18.56C25.8681 18.4229 26.1228 18.3112 26.387 18.2267C26.5551 18.1759 26.7115 18.0925 26.8474 17.9813C26.9833 17.8701 27.0959 17.7332 27.1789 17.5784C27.2618 17.4236 27.3135 17.254 27.3309 17.0793C27.3483 16.9046 27.3311 16.7281 27.2803 16.56C27.2296 16.3919 27.1462 16.2355 27.0349 16.0996C26.9237 15.9638 26.7868 15.8512 26.632 15.7682C26.4773 15.6852 26.3077 15.6336 26.1329 15.6162C25.9582 15.5988 25.7818 15.6159 25.6137 15.6667V15.68Z" fill="black"/>
</svg>
