<svg width="32" height="32" viewBox="0 0 32 32" fill="none" xmlns="http://www.w3.org/2000/svg">
<path d="M29.1998 25.0045L28.8976 24.7379C28.0402 23.974 27.2897 23.0979 26.6665 22.1334C25.9858 20.8024 25.5778 19.3488 25.4665 17.8579V13.4668C25.4724 11.1251 24.623 8.86186 23.0778 7.1023C21.5327 5.34274 19.3982 4.20798 17.0754 3.91121V2.76455C17.0754 2.44982 16.9504 2.14799 16.7278 1.92545C16.5053 1.7029 16.2034 1.57788 15.8887 1.57788C15.574 1.57788 15.2722 1.7029 15.0496 1.92545C14.8271 2.14799 14.702 2.44982 14.702 2.76455V3.92899C12.4001 4.24715 10.2914 5.38877 8.76652 7.14242C7.24168 8.89607 6.40403 11.1429 6.40872 13.4668V17.8579C6.29739 19.3488 5.88941 20.8024 5.20872 22.1334C4.59617 23.0955 3.85778 23.9714 3.01316 24.7379L2.71094 25.0045V27.5112H29.1998V25.0045Z" fill="#0E9C4A"/>
<path d="M13.6177 28.4443C13.6956 29.0078 13.9748 29.524 14.4037 29.8976C14.8326 30.2713 15.3822 30.4771 15.951 30.4771C16.5198 30.4771 17.0694 30.2713 17.4983 29.8976C17.9272 29.524 18.2064 29.0078 18.2843 28.4443H13.6177Z" fill="#0E9C4A"/>
</svg>
