<svg width="31" height="22" viewBox="0 0 31 22" fill="none" xmlns="http://www.w3.org/2000/svg">
<path fill-rule="evenodd" clip-rule="evenodd" d="M9.98655 1.50133C9.91027 1.04662 9.53299 0.703002 9.07315 0.669425C8.61331 0.635849 8.19012 0.92102 8.0486 1.35983L5.26202 10.0001H1.66699C1.11471 10.0001 0.666992 10.4478 0.666992 11.0001C0.666992 11.5524 1.11471 12.0001 1.66699 12.0001H5.99022C6.42425 12.0001 6.80873 11.7201 6.94195 11.307L8.69282 5.8782L11.1454 20.4989C11.2227 20.9597 11.6088 21.3055 12.0753 21.3318C12.5417 21.3582 12.9643 21.058 13.093 20.6089L16.3323 9.3022L18.0388 15.2748C18.1488 15.6597 18.4777 15.942 18.8748 15.9922C19.272 16.0424 19.6608 15.851 19.8632 15.5056L21.9169 12.0001H23.4717C23.907 13.5391 25.322 14.6668 27.0003 14.6668C29.0254 14.6668 30.667 13.0251 30.667 11.0001C30.667 8.97506 29.0254 7.33343 27.0003 7.33343C25.322 7.33343 23.907 8.4611 23.4717 10.0001H21.3438C20.9888 10.0001 20.6604 10.1883 20.4809 10.4946L19.3195 12.4771L17.2952 5.39205C17.1726 4.96288 16.7804 4.66693 16.334 4.66677C15.8877 4.66661 15.4953 4.96227 15.3723 5.39135L12.387 15.8112L9.98655 1.50133ZM25.3337 11.0001C25.3337 10.0796 26.0799 9.33343 27.0003 9.33343C27.9208 9.33343 28.667 10.0796 28.667 11.0001C28.667 11.9206 27.9208 12.6668 27.0003 12.6668C26.0799 12.6668 25.3337 11.9206 25.3337 11.0001Z" fill="black"/>
</svg>
