<svg width="28" height="30" viewBox="0 0 28 30" fill="none" xmlns="http://www.w3.org/2000/svg">
<path d="M14.0003 24.3333C14.264 24.3333 14.5218 24.2551 14.7411 24.1085C14.9604 23.962 15.1312 23.7538 15.2322 23.5102C15.3331 23.2665 15.3595 22.9984 15.308 22.7398C15.2566 22.4812 15.1296 22.2436 14.9431 22.0571C14.7567 21.8706 14.5191 21.7437 14.2604 21.6922C14.0018 21.6408 13.7337 21.6672 13.4901 21.7681C13.2464 21.869 13.0382 22.0399 12.8917 22.2592C12.7452 22.4784 12.667 22.7362 12.667 22.9999C12.667 23.3535 12.8075 23.6927 13.0575 23.9427C13.3076 24.1928 13.6467 24.3333 14.0003 24.3333ZM20.667 24.3333C20.9307 24.3333 21.1885 24.2551 21.4078 24.1085C21.627 23.962 21.7979 23.7538 21.8988 23.5102C21.9997 23.2665 22.0262 22.9984 21.9747 22.7398C21.9233 22.4812 21.7963 22.2436 21.6098 22.0571C21.4233 21.8706 21.1858 21.7437 20.9271 21.6922C20.6685 21.6408 20.4004 21.6672 20.1567 21.7681C19.9131 21.869 19.7049 22.0399 19.5584 22.2592C19.4119 22.4784 19.3337 22.7362 19.3337 22.9999C19.3337 23.3535 19.4741 23.6927 19.7242 23.9427C19.9742 24.1928 20.3134 24.3333 20.667 24.3333ZM20.667 18.9999C20.9307 18.9999 21.1885 18.9217 21.4078 18.7752C21.627 18.6287 21.7979 18.4205 21.8988 18.1768C21.9997 17.9332 22.0262 17.6651 21.9747 17.4065C21.9233 17.1478 21.7963 16.9102 21.6098 16.7238C21.4233 16.5373 21.1858 16.4103 20.9271 16.3589C20.6685 16.3074 20.4004 16.3338 20.1567 16.4347C19.9131 16.5357 19.7049 16.7066 19.5584 16.9258C19.4119 17.1451 19.3337 17.4029 19.3337 17.6666C19.3337 18.0202 19.4741 18.3593 19.7242 18.6094C19.9742 18.8594 20.3134 18.9999 20.667 18.9999ZM14.0003 18.9999C14.264 18.9999 14.5218 18.9217 14.7411 18.7752C14.9604 18.6287 15.1312 18.4205 15.2322 18.1768C15.3331 17.9332 15.3595 17.6651 15.308 17.4065C15.2566 17.1478 15.1296 16.9102 14.9431 16.7238C14.7567 16.5373 14.5191 16.4103 14.2604 16.3589C14.0018 16.3074 13.7337 16.3338 13.4901 16.4347C13.2464 16.5357 13.0382 16.7066 12.8917 16.9258C12.7452 17.1451 12.667 17.4029 12.667 17.6666C12.667 18.0202 12.8075 18.3593 13.0575 18.6094C13.3076 18.8594 13.6467 18.9999 14.0003 18.9999ZM23.3337 2.99992H22.0003V1.66659C22.0003 1.31296 21.8599 0.973825 21.6098 0.723776C21.3598 0.473728 21.0206 0.333252 20.667 0.333252C20.3134 0.333252 19.9742 0.473728 19.7242 0.723776C19.4741 0.973825 19.3337 1.31296 19.3337 1.66659V2.99992H8.66699V1.66659C8.66699 1.31296 8.52652 0.973825 8.27647 0.723776C8.02642 0.473728 7.68728 0.333252 7.33366 0.333252C6.98004 0.333252 6.6409 0.473728 6.39085 0.723776C6.1408 0.973825 6.00033 1.31296 6.00033 1.66659V2.99992H4.66699C3.60613 2.99992 2.58871 3.42135 1.83857 4.17149C1.08842 4.92164 0.666992 5.93905 0.666992 6.99992V25.6666C0.666992 26.7274 1.08842 27.7449 1.83857 28.495C2.58871 29.2452 3.60613 29.6666 4.66699 29.6666H23.3337C24.3945 29.6666 25.4119 29.2452 26.1621 28.495C26.9122 27.7449 27.3337 26.7274 27.3337 25.6666V6.99992C27.3337 5.93905 26.9122 4.92164 26.1621 4.17149C25.4119 3.42135 24.3945 2.99992 23.3337 2.99992ZM24.667 25.6666C24.667 26.0202 24.5265 26.3593 24.2765 26.6094C24.0264 26.8594 23.6873 26.9999 23.3337 26.9999H4.66699C4.31337 26.9999 3.97423 26.8594 3.72418 26.6094C3.47413 26.3593 3.33366 26.0202 3.33366 25.6666V13.6666H24.667V25.6666ZM24.667 10.9999H3.33366V6.99992C3.33366 6.6463 3.47413 6.30716 3.72418 6.05711C3.97423 5.80706 4.31337 5.66658 4.66699 5.66658H6.00033V6.99992C6.00033 7.35354 6.1408 7.69268 6.39085 7.94273C6.6409 8.19278 6.98004 8.33325 7.33366 8.33325C7.68728 8.33325 8.02642 8.19278 8.27647 7.94273C8.52652 7.69268 8.66699 7.35354 8.66699 6.99992V5.66658H19.3337V6.99992C19.3337 7.35354 19.4741 7.69268 19.7242 7.94273C19.9742 8.19278 20.3134 8.33325 20.667 8.33325C21.0206 8.33325 21.3598 8.19278 21.6098 7.94273C21.8599 7.69268 22.0003 7.35354 22.0003 6.99992V5.66658H23.3337C23.6873 5.66658 24.0264 5.80706 24.2765 6.05711C24.5265 6.30716 24.667 6.6463 24.667 6.99992V10.9999ZM7.33366 18.9999C7.59737 18.9999 7.85515 18.9217 8.07442 18.7752C8.29368 18.6287 8.46458 18.4205 8.5655 18.1768C8.66642 17.9332 8.69282 17.6651 8.64137 17.4065C8.58993 17.1478 8.46294 16.9102 8.27647 16.7238C8.09 16.5373 7.85242 16.4103 7.59378 16.3589C7.33514 16.3074 7.06705 16.3338 6.82341 16.4347C6.57978 16.5357 6.37154 16.7066 6.22503 16.9258C6.07852 17.1451 6.00033 17.4029 6.00033 17.6666C6.00033 18.0202 6.1408 18.3593 6.39085 18.6094C6.6409 18.8594 6.98004 18.9999 7.33366 18.9999ZM7.33366 24.3333C7.59737 24.3333 7.85515 24.2551 8.07442 24.1085C8.29368 23.962 8.46458 23.7538 8.5655 23.5102C8.66642 23.2665 8.69282 22.9984 8.64137 22.7398C8.58993 22.4812 8.46294 22.2436 8.27647 22.0571C8.09 21.8706 7.85242 21.7437 7.59378 21.6922C7.33514 21.6408 7.06705 21.6672 6.82341 21.7681C6.57978 21.869 6.37154 22.0399 6.22503 22.2592C6.07852 22.4784 6.00033 22.7362 6.00033 22.9999C6.00033 23.3535 6.1408 23.6927 6.39085 23.9427C6.6409 24.1928 6.98004 24.3333 7.33366 24.3333Z" fill="black"/>
</svg>
