<svg width="30" height="30" viewBox="0 0 30 30" fill="none" xmlns="http://www.w3.org/2000/svg">
<path d="M29.1469 8.40015L21.6669 0.853486C21.5423 0.729911 21.3945 0.632144 21.2321 0.565791C21.0696 0.499438 20.8957 0.465805 20.7202 0.466819C20.3704 0.468292 20.0352 0.60716 19.7869 0.853486L0.853544 19.7202C0.605209 19.97 0.46582 20.3079 0.46582 20.6602C0.46582 21.0124 0.605209 21.3503 0.853544 21.6002L8.40021 29.1468C8.5248 29.2704 8.67255 29.3682 8.835 29.4345C8.99745 29.5009 9.1714 29.5345 9.34688 29.5335C9.69666 29.532 10.0319 29.3931 10.2802 29.1468L14.0535 25.3735L25.3735 14.0535L29.1469 10.2802C29.3952 10.0303 29.5346 9.6924 29.5346 9.34015C29.5346 8.98791 29.3952 8.64997 29.1469 8.40015ZM24.4269 11.2268L23.4802 10.2802C23.2304 10.0318 22.8925 9.89243 22.5402 9.89243C22.188 9.89243 21.85 10.0318 21.6002 10.2802C21.4752 10.4041 21.376 10.5516 21.3084 10.7141C21.2407 10.8765 21.2058 11.0508 21.2058 11.2268C21.2058 11.4028 21.2407 11.5771 21.3084 11.7396C21.376 11.9021 21.4752 12.0495 21.6002 12.1735L22.5469 13.1202L20.6535 15.0002L17.8269 12.1735C17.5718 11.9551 17.2437 11.8409 16.9081 11.8539C16.5726 11.8668 16.2543 12.0059 16.0168 12.2434C15.7793 12.4809 15.6402 12.7992 15.6273 13.1347C15.6143 13.4703 15.7284 13.7984 15.9469 14.0535L18.7735 16.8802L16.8802 18.7735L15.9469 17.8268C15.6958 17.5757 15.3553 17.4347 15.0002 17.4347C14.6451 17.4347 14.3046 17.5757 14.0535 17.8268C13.8025 18.0779 13.6614 18.4184 13.6614 18.7735C13.6614 19.1286 13.8025 19.4691 14.0535 19.7202L15.0002 20.6535L13.1202 22.5468L10.2802 19.7202C10.0304 19.4718 9.69246 19.3324 9.34021 19.3324C8.98796 19.3324 8.65003 19.4718 8.40021 19.7202C8.15188 19.97 8.01249 20.3079 8.01249 20.6602C8.01249 21.0124 8.15188 21.3503 8.40021 21.6002L11.2269 24.4268L9.34688 26.3202L3.68021 20.6535L20.6535 3.68015L26.3202 9.34682L24.4269 11.2268Z" fill="black"/>
</svg>
