<svg width="22" height="22" viewBox="0 0 22 22" fill="none" xmlns="http://www.w3.org/2000/svg">
<path d="M20.3333 9.66634H12.3333V1.66634C12.3333 1.31272 12.1928 0.973581 11.9427 0.723532C11.6927 0.473484 11.3535 0.333008 10.9999 0.333008C10.6463 0.333008 10.3072 0.473484 10.0571 0.723532C9.80706 0.973581 9.66658 1.31272 9.66658 1.66634V9.66634H1.66659C1.31296 9.66634 0.973825 9.80682 0.723776 10.0569C0.473728 10.3069 0.333252 10.6461 0.333252 10.9997C0.333252 11.3533 0.473728 11.6924 0.723776 11.9425C0.973825 12.1925 1.31296 12.333 1.66659 12.333H9.66658V20.333C9.66658 20.6866 9.80706 21.0258 10.0571 21.2758C10.3072 21.5259 10.6463 21.6663 10.9999 21.6663C11.3535 21.6663 11.6927 21.5259 11.9427 21.2758C12.1928 21.0258 12.3333 20.6866 12.3333 20.333V12.333H20.3333C20.6869 12.333 21.026 12.1925 21.2761 11.9425C21.5261 11.6924 21.6666 11.3533 21.6666 10.9997C21.6666 10.6461 21.5261 10.3069 21.2761 10.0569C21.026 9.80682 20.6869 9.66634 20.3333 9.66634Z" fill="#8E8E8E"/>
</svg>
