<svg width="160" height="162" viewBox="0 0 160 162" fill="none" xmlns="http://www.w3.org/2000/svg">
<path d="M80 132.333C81.5823 132.333 83.129 131.903 84.4446 131.097C85.7602 130.291 86.7855 129.146 87.391 127.806C87.9965 126.466 88.155 124.992 87.8463 123.569C87.5376 122.146 86.7757 120.84 85.6569 119.814C84.538 118.789 83.1126 118.09 81.5607 117.807C80.0089 117.524 78.4003 117.67 76.9385 118.225C75.4767 118.78 74.2273 119.72 73.3482 120.925C72.4692 122.131 72 123.549 72 125C72 126.945 72.8429 128.81 74.3431 130.185C75.8434 131.56 77.8783 132.333 80 132.333ZM120 132.333C121.582 132.333 123.129 131.903 124.445 131.097C125.76 130.291 126.786 129.146 127.391 127.806C127.997 126.466 128.155 124.992 127.846 123.569C127.538 122.146 126.776 120.84 125.657 119.814C124.538 118.789 123.113 118.09 121.561 117.807C120.009 117.524 118.4 117.67 116.939 118.225C115.477 118.78 114.227 119.72 113.348 120.925C112.469 122.131 112 123.549 112 125C112 126.945 112.843 128.81 114.343 130.185C115.843 131.56 117.878 132.333 120 132.333ZM120 103C121.582 103 123.129 102.57 124.445 101.764C125.76 100.958 126.786 99.8127 127.391 98.4727C127.997 97.1327 128.155 95.6582 127.846 94.2357C127.538 92.8131 126.776 91.5065 125.657 90.4809C124.538 89.4553 123.113 88.7569 121.561 88.4739C120.009 88.191 118.4 88.3362 116.939 88.8912C115.477 89.4463 114.227 90.3862 113.348 91.5922C112.469 92.7981 112 94.2159 112 95.6663C112 97.6113 112.843 99.4765 114.343 100.852C115.843 102.227 117.878 103 120 103ZM80 103C81.5823 103 83.129 102.57 84.4446 101.764C85.7602 100.958 86.7855 99.8127 87.391 98.4727C87.9965 97.1327 88.155 95.6582 87.8463 94.2357C87.5376 92.8131 86.7757 91.5065 85.6569 90.4809C84.538 89.4553 83.1126 88.7569 81.5607 88.4739C80.0089 88.191 78.4003 88.3362 76.9385 88.8912C75.4767 89.4463 74.2273 90.3862 73.3482 91.5922C72.4692 92.7981 72 94.2159 72 95.6663C72 97.6113 72.8429 99.4765 74.3431 100.852C75.8434 102.227 77.8783 103 80 103ZM136 14.9997H128V7.66634C128 5.72142 127.157 3.85616 125.657 2.48089C124.157 1.10562 122.122 0.333008 120 0.333008C117.878 0.333008 115.843 1.10562 114.343 2.48089C112.843 3.85616 112 5.72142 112 7.66634V14.9997H48V7.66634C48 5.72142 47.1571 3.85616 45.6569 2.48089C44.1566 1.10562 42.1217 0.333008 40 0.333008C37.8783 0.333008 35.8434 1.10562 34.3431 2.48089C32.8429 3.85616 32 5.72142 32 7.66634V14.9997H24C17.6348 14.9997 11.5303 17.3175 7.02944 21.4433C2.52856 25.5691 0 31.1649 0 36.9997V139.666C0 145.501 2.52856 151.097 7.02944 155.223C11.5303 159.348 17.6348 161.666 24 161.666H136C142.365 161.666 148.47 159.348 152.971 155.223C157.471 151.097 160 145.501 160 139.666V36.9997C160 31.1649 157.471 25.5691 152.971 21.4433C148.47 17.3175 142.365 14.9997 136 14.9997ZM144 139.666C144 141.611 143.157 143.477 141.657 144.852C140.157 146.227 138.122 147 136 147H24C21.8783 147 19.8434 146.227 18.3431 144.852C16.8429 143.477 16 141.611 16 139.666V73.6663H144V139.666ZM144 58.9997H16V36.9997C16 35.0548 16.8429 33.1895 18.3431 31.8142C19.8434 30.439 21.8783 29.6663 24 29.6663H32V36.9997C32 38.9446 32.8429 40.8099 34.3431 42.1851C35.8434 43.5604 37.8783 44.333 40 44.333C42.1217 44.333 44.1566 43.5604 45.6569 42.1851C47.1571 40.8099 48 38.9446 48 36.9997V29.6663H112V36.9997C112 38.9446 112.843 40.8099 114.343 42.1851C115.843 43.5604 117.878 44.333 120 44.333C122.122 44.333 124.157 43.5604 125.657 42.1851C127.157 40.8099 128 38.9446 128 36.9997V29.6663H136C138.122 29.6663 140.157 30.439 141.657 31.8142C143.157 33.1895 144 35.0548 144 36.9997V58.9997ZM40 103C41.5822 103 43.129 102.57 44.4446 101.764C45.7602 100.958 46.7855 99.8127 47.391 98.4727C47.9965 97.1327 48.155 95.6582 47.8463 94.2357C47.5376 92.8131 46.7757 91.5065 45.6569 90.4809C44.538 89.4553 43.1126 88.7569 41.5607 88.4739C40.0089 88.191 38.4003 88.3362 36.9385 88.8912C35.4767 89.4463 34.2273 90.3862 33.3482 91.5922C32.4692 92.7981 32 94.2159 32 95.6663C32 97.6113 32.8429 99.4765 34.3431 100.852C35.8434 102.227 37.8783 103 40 103ZM40 132.333C41.5822 132.333 43.129 131.903 44.4446 131.097C45.7602 130.291 46.7855 129.146 47.391 127.806C47.9965 126.466 48.155 124.992 47.8463 123.569C47.5376 122.146 46.7757 120.84 45.6569 119.814C44.538 118.789 43.1126 118.09 41.5607 117.807C40.0089 117.524 38.4003 117.67 36.9385 118.225C35.4767 118.78 34.2273 119.72 33.3482 120.925C32.4692 122.131 32 123.549 32 125C32 126.945 32.8429 128.81 34.3431 130.185C35.8434 131.56 37.8783 132.333 40 132.333Z" fill="#CFEBDB"/>
</svg>
